<?xml version="1.0" encoding="UTF-8" standalone="no"?>


<svg
   xmlns:dc="http://purl.org/dc/elements/1.1/"
   xmlns:cc="http://creativecommons.org/ns#"
   xmlns:rdf="http://www.w3.org/1999/02/22-rdf-syntax-ns#"
   xmlns:svg="http://www.w3.org/2000/svg"
   xmlns="http://www.w3.org/2000/svg"
   xmlns:sodipodi="http://sodipodi.sourceforge.net/DTD/sodipodi-0.dtd"
   xmlns:inkscape="http://www.inkscape.org/namespaces/inkscape"
   version="1.1"
   id="Layer_1"
   x="0px"
   y="0px"
   viewBox="0 0 785.70001 152.60001"
   enable-background="new 0 0 800 170"
   xml:space="preserve"
   inkscape:version="0.91 r13725"
   sodipodi:docname="motortrend-light.svg"
   width="717.548231336"
   height="139.363454097"><metadata
     id="metadata23"><rdf:RDF><cc:Work
         rdf:about=""><dc:format>image/svg+xml</dc:format><dc:type
           rdf:resource="http://purl.org/dc/dcmitype/StillImage" /><dc:title></dc:title></cc:Work></rdf:RDF></metadata><defs
     id="defs21" /><sodipodi:namedview
     pagecolor="#ffffff"
     bordercolor="#666666"
     borderopacity="1"
     objecttolerance="10"
     gridtolerance="10"
     guidetolerance="10"
     inkscape:pageopacity="0"
     inkscape:pageshadow="2"
     inkscape:window-width="1680"
     inkscape:window-height="931"
     id="namedview19"
     showgrid="false"
     inkscape:zoom="0.3875"
     inkscape:cx="56.774194"
     inkscape:cy="85"
     inkscape:window-x="0"
     inkscape:window-y="1"
     inkscape:window-maximized="1"
     inkscape:current-layer="Layer_1" /><path
     d="m 744.2,25 c 1.1,0 2,-0.2 3,-0.2 4.4,0 6.1,1.1 6.1,4.6 0,0.4 -0.2,2 -0.7,5.2 L 740.2,118 c -0.9,6.9 -1.3,9.3 -8,9.3 -0.9,0 -1.9,-0.2 -3.1,-0.2 L 744.2,25 Z M 716.4,0.9 694,151.3 l 36.3,0 c 16.1,0 26.1,-0.4 32.4,-6.7 5.6,-5.4 6.7,-13.2 8.3,-24.5 l 13.2,-88.4 c 1.1,-6.9 1.5,-11.7 1.5,-14.4 0,-15.2 -10.9,-16.5 -33.2,-16.5 l -36.1,0 z m -79.4,0 -22.4,150.4 27,0 11,-73.7 1.3,0 4.1,73.7 29.1,0 22.4,-150.4 -26.9,0 -11.7,77.1 -1.3,0 -3.3,-77.1 -29.3,0 z m -54.8,0 -22.4,150.4 50.2,0 3.5,-24.5 -18.7,0 6.9,-45.9 18.7,0 3.7,-24.5 -18.9,0 4.6,-31.3 18.9,0 3.7,-24.3 -50.2,0 z m -50.4,24.3 2.6,0 c 4.6,0 6.5,0.6 6.5,4.3 0,0.2 -0.2,2.2 -0.7,5.7 l -2.8,18.7 c -1.1,7.4 -1.5,10 -8.2,10 -0.9,0 -1.9,-0.2 -3.1,-0.2 l 5.7,-38.5 z M 504,0.9 l -22.4,150.4 31.3,0 8.9,-59.7 2.2,0 c 4.6,0 6.7,1.1 6.7,4.6 0,1.1 0,2.2 -0.2,3.3 l -7.8,51.7 31.3,0 7.2,-48.9 c 0.6,-3.3 0.7,-6.5 0.7,-9.1 0,-8.3 -3.1,-12.8 -11.5,-15.4 14.8,-5 16.7,-13.9 19.1,-30.4 l 2.2,-15.6 c 0.9,-5.9 1.5,-10.6 1.5,-14.3 C 573.2,2.7 562.8,0.6 540,0.6 l -36,0 z m -68,0 -3.7,24.8 16.3,0 -18.7,125.6 31.3,0 18.7,-125.6 16.3,0 3.7,-24.8 -63.9,0 z"
     id="path3"
     style="fill:#000000"
     inkscape:connector-curvature="0" /><path
     d="m 379.6,25.2 2.6,0 c 4.6,0 6.5,0.6 6.5,4.3 0,0.2 -0.2,2.2 -0.7,5.7 l -2.8,18.7 c -1.1,7.4 -1.5,10 -8.2,10 -0.9,0 -1.9,-0.2 -3.1,-0.2 l 5.7,-38.5 z m -27.8,-24.3 -22.4,150.4 31.3,0 8.9,-59.7 2.2,0 c 4.6,0 6.7,1.1 6.7,4.6 0,1.1 0,2.2 -0.2,3.3 l -7.8,51.7 31.3,0 7.2,-48.9 c 0.6,-3.3 0.7,-6.5 0.7,-9.1 0,-8.3 -3.1,-12.8 -11.5,-15.4 14.8,-5 16.7,-13.9 19.1,-30.4 l 2.2,-15.6 C 420.4,25.9 421,21.2 421,17.5 421,2.7 410.6,0.6 387.8,0.6 l -36,0 z M 308.2,32 295,120 c -0.7,5 -1.7,7.6 -5.9,7.6 -3,0 -4.1,-1.3 -4.1,-4.4 0,-0.9 0,-1.9 0.2,-3.2 l 13.2,-88 c 0.7,-4.6 1.5,-7.4 5.6,-7.4 3.3,0 4.6,1.3 4.6,4.4 0,0.2 0,1.2 -0.4,3 m 31.5,-0.9 c 0.9,-6.3 1.5,-11.1 1.5,-14.8 0,-15.4 -10.7,-16.3 -33,-16.3 -16.3,0 -26.7,0.2 -33,6.9 -5.2,5.4 -6.3,13.3 -8,24.3 l -13.3,89.9 c -1.1,7 -1.5,12.6 -1.5,16.5 0,13.3 11.5,15 33,15 16.3,0 26.3,-0.6 32.4,-6.7 5.7,-5.7 6.7,-13.7 8.3,-24.8 l 13.6,-90 z m -135,-30.2 -3.7,24.8 16.3,0 -18.7,125.6 31.3,0 18.7,-125.6 16.3,0 3.7,-24.8 -63.9,0 z M 165.4,32 152.2,120 c -0.7,5 -1.7,7.6 -5.9,7.6 -3,0 -4.1,-1.3 -4.1,-4.4 0,-0.9 0,-1.9 0.2,-3.2 l 13.2,-88 c 0.7,-4.6 1.5,-7.4 5.6,-7.4 3.3,0 4.6,1.3 4.6,4.4 0,0.2 0,1.2 -0.4,3 m 31.5,-0.9 c 0.9,-6.3 1.5,-11.1 1.5,-14.8 0,-15.4 -10.7,-16.3 -33,-16.3 -16.3,0 -26.7,0.2 -33,6.9 -5.2,5.4 -6.3,13.3 -8,24.3 l -13.3,89.9 c -1.1,7 -1.5,12.6 -1.5,16.5 0,13.3 11.5,15 33,15 16.3,0 26.3,-0.6 32.4,-6.7 5.7,-5.7 6.7,-13.7 8.3,-24.8 l 13.6,-90 z M 22.4,0.9 0,151.3 l 28.3,0 13,-86.7 1.1,0 -1.7,86.7 17.6,0 24.1,-86.7 1.3,0 -13,86.7 28.2,0 22.6,-150.4 -38.4,0 -22,76.1 -1.3,0 0.9,-76.1 -38.3,0 z"
     id="path5"
     inkscape:connector-curvature="0"
     style="fill:#ec1c24" /><g
     id="g7"
     transform="translate(0,-17.4)" /><g
     id="g9"
     transform="translate(0,-17.4)" /><g
     id="g11"
     transform="translate(0,-17.4)" /><g
     id="g13"
     transform="translate(0,-17.4)" /><g
     id="g15"
     transform="translate(0,-17.4)" /><g
     id="g17"
     transform="translate(0,-17.4)" /></svg>